<svg width="100.000000" height="100.000000" viewBox="0 0 100 100" fill="none" xmlns="http://www.w3.org/2000/svg" xmlns:xlink="http://www.w3.org/1999/xlink">
	<desc>
			Created with Pixso.
	</desc>
	<defs>
		<clipPath id="clip1_138">
			<rect id="view" width="100.000000" height="100.000000" fill="white" fill-opacity="0"/>
		</clipPath>
	</defs>
	<rect id="view" width="100.000000" height="100.000000" fill="#FFFFFF" fill-opacity="0"/>
	<g clip-path="url(#clip1_138)">
		<path id="Vector" d="M86.2534 36.4207C66.1706 16.3379 33.4966 16.3379 13.4138 36.4207L0 49.8328L13.7466 63.5796C23.7872 73.6201 36.9763 78.6421 50.1672 78.6421C63.3581 78.6421 76.5456 73.6218 86.5878 63.5796L100.002 50.1658L86.2534 36.4207ZM84.1976 61.1909C65.4324 79.9546 34.9003 79.9546 16.1351 61.1909L4.77704 49.8328L15.8024 38.8076C34.5676 20.0439 65.0997 20.0439 83.8649 38.8076L95.223 50.1658L84.1976 61.1909Z" fill="#FFFFFF" fill-opacity="1.000000" fill-rule="nonzero"/>
		<path id="Vector" d="M48.2635 36.4358C41.7433 36.4358 36.4392 41.7397 36.4392 48.26C36.4392 49.1926 37.196 49.9492 38.1284 49.9492C39.0608 49.9492 39.8176 49.1926 39.8176 48.26C39.8176 43.603 43.6064 39.8142 48.2635 39.8142C49.196 39.8142 49.9527 39.0574 49.9527 38.125C49.9527 37.1926 49.1976 36.4358 48.2635 36.4358Z" fill="#FFFFFF" fill-opacity="1.000000" fill-rule="nonzero"/>
		<path id="Vector" d="M49.9527 27.99C37.8446 27.99 27.9932 37.8413 27.9932 49.9495C27.9932 62.0576 37.8446 71.9089 49.9527 71.9089C62.0608 71.9089 71.9121 62.0576 71.9121 49.9495C71.9121 37.8413 62.0625 27.99 49.9527 27.99ZM49.9527 68.5305C39.7077 68.5305 31.3716 60.1943 31.3716 49.9495C31.3716 39.7046 39.7077 31.3684 49.9527 31.3684C60.1976 31.3684 68.5338 39.7046 68.5338 49.9495C68.5338 60.1943 60.1993 68.5305 49.9527 68.5305Z" fill="#FFFFFF" fill-opacity="1.000000" fill-rule="nonzero"/>
	</g>
</svg>
