<svg width="51.750000" height="48.000000" viewBox="0 0 51.75 48" fill="none" xmlns="http://www.w3.org/2000/svg" xmlns:xlink="http://www.w3.org/1999/xlink">
	<desc>
			Created with Pixso.
	</desc>
	<defs>
		<filter id="filter_1_167_dd" x="0.000000" y="0.000000" width="51.750000" height="48.000000" filterUnits="userSpaceOnUse" color-interpolation-filters="sRGB">
			<feFlood flood-opacity="0" result="BackgroundImageFix"/>
			<feColorMatrix in="SourceAlpha" type="matrix" values="0 0 0 0 0 0 0 0 0 0 0 0 0 0 0 0 0 0 127 0" result="hardAlpha"/>
			<feOffset dx="0" dy="4"/>
			<feGaussianBlur stdDeviation="1.33333"/>
			<feComposite in2="hardAlpha" operator="out" k2="-1" k3="1"/>
			<feColorMatrix type="matrix" values="0 0 0 0 0 0 0 0 0 0 0 0 0 0 0 0 0 0 0.25 0"/>
			<feBlend mode="normal" in2="BackgroundImageFix" result="effect_dropShadow_1"/>
			<feBlend mode="normal" in="SourceGraphic" in2="effect_dropShadow_1" result="shape"/>
		</filter>
		<clipPath id="clip1_167">
			<rect id="vk-social-network-logo" width="43.750000" height="40.000000" transform="translate(4.000000 0.000000)" fill="white" fill-opacity="0"/>
		</clipPath>
	</defs>
	<g filter="url(#filter_1_167_dd)">
		<rect id="vk-social-network-logo" width="43.750000" height="40.000000" transform="translate(4.000000 0.000000)" fill="#FFFFFF" fill-opacity="0"/>
		<g clip-path="url(#clip1_167)">
			<path id="Vector" d="M47.5181 29.2002C47.4651 29.0957 47.4157 29.0088 47.3698 28.9395C46.6108 27.6895 45.1602 26.1553 43.0191 24.3364L42.9738 24.2949L42.9512 24.2744L42.9283 24.2534L42.9053 24.2534C41.9335 23.4067 41.3182 22.8374 41.0605 22.5454C40.5889 21.9902 40.4833 21.4282 40.741 20.8584C40.9231 20.4282 41.607 19.519 42.7911 18.1304C43.414 17.3945 43.9073 16.8047 44.2716 16.3604C46.899 13.167 48.038 11.126 47.6886 10.2373L47.5529 10.0298C47.4617 9.90479 47.2263 9.79053 46.8471 9.68604C46.467 9.58203 45.9812 9.56445 45.3888 9.63428L38.8287 9.67529C38.7224 9.64111 38.5706 9.64404 38.373 9.68604C38.1755 9.72754 38.0767 9.74854 38.0767 9.74854L37.9626 9.80078L37.8719 9.86328C37.796 9.90479 37.7124 9.97754 37.6212 10.082C37.5305 10.1855 37.4547 10.3076 37.394 10.4463C36.6798 12.1265 35.8677 13.6885 34.9564 15.1323C34.3945 15.9932 33.8784 16.7393 33.4071 17.3711C32.9365 18.0024 32.5417 18.4678 32.223 18.7661C31.9039 19.0649 31.6158 19.3042 31.3572 19.4849C31.0989 19.6655 30.9018 19.7417 30.7653 19.7139C30.6284 19.686 30.4996 19.6582 30.3776 19.6304C30.1651 19.5054 29.9942 19.3354 29.8654 19.1201C29.736 18.9053 29.6489 18.6343 29.6033 18.3081C29.558 17.9814 29.5312 17.7007 29.5235 17.4644C29.5164 17.2285 29.5197 16.895 29.5351 16.4648C29.5509 16.0342 29.558 15.7427 29.558 15.5898C29.558 15.0625 29.5692 14.4897 29.5918 13.8716C29.6148 13.2539 29.6334 12.7646 29.6489 12.4038C29.6644 12.043 29.6716 11.6606 29.6716 11.2583C29.6716 10.8555 29.6448 10.5396 29.5918 10.3105C29.5395 10.0815 29.4591 9.85938 29.3532 9.64404C29.2467 9.42871 29.0909 9.26221 28.8863 9.14404C28.6813 9.02637 28.4265 8.93262 28.1232 8.86279C27.3183 8.69629 26.2933 8.60645 25.0478 8.59229C22.2234 8.56445 20.4085 8.73145 19.6037 9.09229C19.2848 9.24512 18.9962 9.45312 18.7382 9.7168C18.4648 10.0225 18.4266 10.1895 18.624 10.2168C19.5353 10.3413 20.1805 10.6401 20.5601 11.1118L20.697 11.3623C20.8034 11.5425 20.9097 11.8623 21.016 12.3203C21.1222 12.7783 21.1907 13.2852 21.2209 13.8403C21.2967 14.854 21.2967 15.7217 21.2209 16.4434C21.1449 17.1655 21.0731 17.728 21.0045 18.1304C20.936 18.5332 20.8336 18.8594 20.697 19.1094C20.5601 19.3594 20.4691 19.5122 20.4235 19.5674C20.3779 19.623 20.3399 19.6577 20.3098 19.6714C20.1124 19.7407 19.9071 19.7759 19.6946 19.7759C19.4819 19.7759 19.2238 19.6787 18.9202 19.4839C18.6166 19.2896 18.3015 19.0225 17.975 18.6821C17.6484 18.3418 17.2802 17.8667 16.87 17.2559C16.4601 16.645 16.0349 15.9229 15.5945 15.0898L15.2301 14.4858C15.0023 14.0972 14.6912 13.5312 14.2963 12.7886C13.9012 12.0454 13.552 11.3267 13.2484 10.6328C13.1271 10.3413 12.9448 10.1191 12.7018 9.96631L12.5878 9.90381C12.512 9.84814 12.3904 9.78955 12.2234 9.72656C12.0563 9.66406 11.8819 9.61914 11.6995 9.59131L5.45813 9.63281C4.82034 9.63281 4.3876 9.76514 4.15973 10.0288L4.06854 10.1538C4.02298 10.2231 4 10.334 4 10.4868C4 10.6396 4.04556 10.8271 4.13675 11.0493C5.04788 13.0068 6.03873 14.895 7.10925 16.7139C8.17978 18.5327 9.11008 19.998 9.89954 21.1079C10.6891 22.2188 11.494 23.2671 12.3141 24.2529C13.1342 25.2388 13.677 25.8706 13.9426 26.1479C14.2086 26.4263 14.4174 26.6338 14.5693 26.7729L15.1388 27.2725C15.5033 27.606 16.0385 28.0049 16.7446 28.4702C17.451 28.9355 18.2329 29.3936 19.0909 29.8452C19.9491 30.2959 20.9474 30.6636 22.0865 30.9482C23.2254 31.2334 24.3339 31.3477 25.4122 31.2925L28.0318 31.2925C28.5631 31.2505 28.9656 31.0977 29.2392 30.834L29.3298 30.7295C29.3907 30.647 29.4478 30.5181 29.5005 30.3447C29.5537 30.1714 29.5802 29.98 29.5802 29.772C29.5647 29.1753 29.6144 28.6372 29.728 28.1582C29.8415 27.6797 29.9709 27.3184 30.1157 27.0752C30.2603 26.8325 30.4236 26.6274 30.6052 26.4614C30.7873 26.2949 30.917 26.1938 30.9931 26.1592C31.0688 26.124 31.1292 26.1006 31.1747 26.0864C31.5392 25.9751 31.9681 26.083 32.4621 26.4092C32.9557 26.7358 33.4187 27.1387 33.8518 27.6172C34.2846 28.0967 34.8046 28.6343 35.4119 29.231C36.0197 29.8281 36.551 30.272 37.0064 30.564L37.4618 30.814C37.766 30.981 38.1608 31.1338 38.6469 31.2725C39.132 31.4111 39.5571 31.4458 39.9221 31.3765L45.7533 31.2935C46.33 31.2935 46.7788 31.2061 47.0971 31.0327C47.4161 30.8594 47.6056 30.668 47.6667 30.46C47.7277 30.252 47.7309 30.0156 47.6783 29.7515C47.6243 29.4883 47.571 29.3042 47.5181 29.2002Z" fill="#FFFFFF" fill-opacity="1.000000" fill-rule="nonzero"/>
		</g>
	</g>
</svg>
